<svg width="13" height="12" viewBox="0 0 13 12" fill="none" xmlns="http://www.w3.org/2000/svg">
<path d="M0.96297 0C0.431892 0 0 0.4485 0 1V11C0 11.5515 0.431892 12 0.96297 12H7.70376C8.23484 12 8.66673 11.5515 8.66673 11V6.5H4.81485C4.54907 6.5 4.33336 6.276 4.33336 6C4.33336 5.724 4.54907 5.5 4.81485 5.5H8.66673V1C8.66673 0.4485 8.23484 0 7.70376 0H0.96297ZM8.66673 5.5V6.5H11.3563L10.2522 7.64648C10.206 7.69256 10.1691 7.74774 10.1437 7.80881C10.1183 7.86987 10.1049 7.93559 10.1042 8.00211C10.1036 8.06863 10.1157 8.13461 10.1399 8.1962C10.1641 8.25779 10.1999 8.31375 10.2452 8.36079C10.2905 8.40783 10.3444 8.44501 10.4037 8.47015C10.463 8.49529 10.5266 8.5079 10.5906 8.50722C10.6547 8.50654 10.718 8.4926 10.7768 8.46621C10.8356 8.43981 10.8887 8.4015 10.9331 8.35352L12.859 6.35352C12.9493 6.25974 13 6.13259 13 6C13 5.86741 12.9493 5.74026 12.859 5.64648L10.9331 3.64648C10.8882 3.59859 10.8346 3.56051 10.7753 3.53452C10.716 3.50852 10.6523 3.49512 10.588 3.49512C10.4922 3.49514 10.3986 3.52483 10.3191 3.58039C10.2397 3.63595 10.178 3.71485 10.142 3.807C10.1059 3.89916 10.0972 4.00038 10.1168 4.09773C10.1364 4.19509 10.1836 4.28414 10.2522 4.35352L11.3563 5.5H8.66673Z" fill="#0014C3"/>
</svg>
