<svg width="24" height="27" viewBox="0 0 24 27" fill="none" xmlns="http://www.w3.org/2000/svg">
<path d="M10.5 4C9.44659 4 8.59338 4.8234 8.59338 5.84V6.08078C5.30612 6.89919 2.87351 9.77212 2.87351 13.2V15.403C2.87351 16.8658 2.56221 18.3032 1.98164 19.64H19.0184C18.4378 18.3042 18.1265 16.8658 18.1265 15.403V13.2C18.1265 9.77212 15.6939 6.89919 12.4066 6.08078V5.84C12.4066 4.8234 11.5534 4 10.5 4ZM0.966889 21.48C0.840564 21.4783 0.715143 21.5008 0.597916 21.5463C0.480689 21.5917 0.373994 21.6592 0.28403 21.7448C0.194066 21.8304 0.122629 21.9324 0.073869 22.0449C0.0251093 22.1574 0 22.2781 0 22.4C0 22.5219 0.0251093 22.6426 0.073869 22.7551C0.122629 22.8676 0.194066 22.9696 0.28403 23.0552C0.373994 23.1408 0.480689 23.2083 0.597916 23.2537C0.715143 23.2992 0.840564 23.3217 0.966889 23.32H7.80764C7.69802 23.6153 7.64135 23.9264 7.64007 24.24C7.64007 24.972 7.94138 25.674 8.47772 26.1916C9.01406 26.7092 9.7415 27 10.5 27C11.2585 27 11.9859 26.7092 12.5223 26.1916C13.0586 25.674 13.3599 24.972 13.3599 24.24C13.3592 23.9265 13.3032 23.6154 13.1942 23.32H20.0331C20.1594 23.3217 20.2849 23.2992 20.4021 23.2537C20.5193 23.2083 20.626 23.1408 20.716 23.0552C20.8059 22.9696 20.8774 22.8676 20.9261 22.7551C20.9749 22.6426 21 22.5219 21 22.4C21 22.2781 20.9749 22.1574 20.9261 22.0449C20.8774 21.9324 20.8059 21.8304 20.716 21.7448C20.626 21.6592 20.5193 21.5917 20.4021 21.5463C20.2849 21.5008 20.1594 21.4783 20.0331 21.48H10.5H0.966889Z" fill="#0047FF"/>
<circle cx="17.5" cy="6.5" r="6.5" fill="#0014C3"/>
<path d="M18.8618 8.59814V10H18.1147V8.59814H15.1968V7.98291L18.0312 3.80811H18.8618V7.97412H19.7319V8.59814H18.8618ZM15.9263 7.97412H18.1147V5.50439C18.1147 5.36963 18.1147 5.23633 18.1147 5.10449C18.1177 4.96973 18.1235 4.83496 18.1323 4.7002C18.0649 4.8291 18.0063 4.93457 17.9565 5.0166C17.9067 5.0957 17.8613 5.16455 17.8203 5.22314L15.9263 7.97412Z" fill="white"/>
</svg>
