<svg width="23" height="23" viewBox="0 0 23 23" fill="none" xmlns="http://www.w3.org/2000/svg">
<path d="M11.5 0C5.14913 0 0 5.14913 0 11.5C0 17.8509 5.14913 23 11.5 23C17.8509 23 23 17.8509 23 11.5C23 5.14913 17.8509 0 11.5 0ZM4.79167 18.3435C5.91004 14.9893 9.26421 16.2984 9.82292 14.4814V13.27C9.57183 13.1349 8.85213 12.2072 8.77642 11.4827C8.57804 11.4655 8.26754 11.269 8.17554 10.4918C8.12667 10.075 8.32217 9.84017 8.44004 9.76637C8.44004 9.76637 8.14487 9.09363 8.14487 8.42567C8.14583 6.44 9.12908 4.79167 11.5 4.79167C12.7803 4.79167 13.1771 5.69921 13.1771 5.69921C14.3213 5.69921 14.8542 6.95367 14.8542 8.42471C14.8542 9.15783 14.559 9.76542 14.559 9.76542C14.6778 9.83921 14.8733 10.074 14.8245 10.4909C14.7325 11.2681 14.422 11.4645 14.2236 11.4818C14.1479 12.2063 13.4291 13.134 13.1771 13.2691V14.4804C13.7358 16.2984 17.09 14.9893 18.2083 18.3435C18.2083 18.3435 15.6994 21.0833 11.5 21.0833C7.27662 21.0833 4.79167 18.3435 4.79167 18.3435Z" fill="#0047FF"/>
</svg>
